<mxfile host="app.diagrams.net" agent="Mozilla/5.0 (Windows NT 10.0; Win64; x64) AppleWebKit/537.36 (KHTML, like Gecko) Chrome/131.0.0.0 Safari/537.36" version="26.0.3">
  <diagram name="Page-1" id="dsGVA7ELRnR3cl8Xft3Q">
    <mxGraphModel dx="1195" dy="643" grid="1" gridSize="10" guides="1" tooltips="1" connect="1" arrows="1" fold="1" page="1" pageScale="1" pageWidth="850" pageHeight="1100" math="0" shadow="0">
      <root>
        <mxCell id="0" />
        <mxCell id="1" parent="0" />
        <mxCell id="Qmlk_czyVBTn5NBaqzYN-1" value="&lt;b&gt;&lt;font style=&quot;font-size: 14px;&quot;&gt;Statefulset&lt;/font&gt;&lt;/b&gt;" style="rounded=1;arcSize=10;whiteSpace=wrap;html=1;align=center;fillColor=#dae8fc;strokeColor=#6c8ebf;" vertex="1" parent="1">
          <mxGeometry x="100" y="160" width="100" height="40" as="geometry" />
        </mxCell>
        <mxCell id="Qmlk_czyVBTn5NBaqzYN-2" value="&lt;b&gt;&lt;font style=&quot;font-size: 14px;&quot;&gt;Pod&lt;/font&gt;&lt;/b&gt;" style="rounded=1;arcSize=10;whiteSpace=wrap;html=1;align=center;fillColor=#d5e8d4;strokeColor=#82b366;" vertex="1" parent="1">
          <mxGeometry x="420" y="160" width="100" height="40" as="geometry" />
        </mxCell>
        <mxCell id="Qmlk_czyVBTn5NBaqzYN-3" value="&lt;b&gt;&lt;font style=&quot;font-size: 14px;&quot;&gt;Service/&lt;/font&gt;&lt;/b&gt;&lt;div&gt;&lt;b&gt;&lt;font style=&quot;font-size: 14px;&quot;&gt;ClusterIP&lt;/font&gt;&lt;/b&gt;&lt;/div&gt;" style="rounded=1;arcSize=10;whiteSpace=wrap;html=1;align=center;fillColor=#ffe6cc;strokeColor=#d79b00;" vertex="1" parent="1">
          <mxGeometry x="260" y="160" width="100" height="40" as="geometry" />
        </mxCell>
        <mxCell id="Qmlk_czyVBTn5NBaqzYN-4" value="" style="rounded=1;whiteSpace=wrap;html=1;" vertex="1" parent="1">
          <mxGeometry x="100" y="240" width="980" height="420" as="geometry" />
        </mxCell>
        <mxCell id="Qmlk_czyVBTn5NBaqzYN-5" value="&lt;b&gt;&lt;font style=&quot;font-size: 14px;&quot;&gt;superset&lt;/font&gt;&lt;/b&gt;" style="rounded=1;arcSize=10;whiteSpace=wrap;html=1;align=center;fillColor=#f8cecc;strokeColor=#b85450;" vertex="1" parent="1">
          <mxGeometry x="120" y="260" width="100" height="40" as="geometry" />
        </mxCell>
        <mxCell id="Qmlk_czyVBTn5NBaqzYN-6" value="&lt;b&gt;&lt;font style=&quot;font-size: 14px;&quot;&gt;superset-postgresql&lt;/font&gt;&lt;/b&gt;" style="rounded=1;arcSize=10;whiteSpace=wrap;html=1;align=center;fillColor=#dae8fc;strokeColor=#6c8ebf;" vertex="1" parent="1">
          <mxGeometry x="470" y="260" width="100" height="40" as="geometry" />
        </mxCell>
        <mxCell id="Qmlk_czyVBTn5NBaqzYN-7" value="&lt;b&gt;&lt;font style=&quot;font-size: 14px;&quot;&gt;superset-postgresql-0&lt;/font&gt;&lt;/b&gt;" style="rounded=1;arcSize=10;whiteSpace=wrap;html=1;align=center;fillColor=#d5e8d4;strokeColor=#82b366;" vertex="1" parent="1">
          <mxGeometry x="470" y="360" width="100" height="40" as="geometry" />
        </mxCell>
        <mxCell id="Qmlk_czyVBTn5NBaqzYN-8" value="10.244.1.32" style="text;html=1;align=center;verticalAlign=middle;whiteSpace=wrap;rounded=0;" vertex="1" parent="1">
          <mxGeometry x="470" y="400" width="100" height="20" as="geometry" />
        </mxCell>
        <mxCell id="Qmlk_czyVBTn5NBaqzYN-9" value="&lt;b&gt;&lt;font style=&quot;font-size: 14px;&quot;&gt;superset&lt;/font&gt;&lt;/b&gt;" style="rounded=1;arcSize=10;whiteSpace=wrap;html=1;align=center;fillColor=#e1d5e7;strokeColor=#9673a6;" vertex="1" parent="1">
          <mxGeometry x="120" y="360" width="100" height="40" as="geometry" />
        </mxCell>
        <mxCell id="Qmlk_czyVBTn5NBaqzYN-10" value="" style="endArrow=classic;html=1;rounded=0;entryX=0.5;entryY=0;entryDx=0;entryDy=0;exitX=0.5;exitY=1;exitDx=0;exitDy=0;" edge="1" parent="1" source="Qmlk_czyVBTn5NBaqzYN-5" target="Qmlk_czyVBTn5NBaqzYN-9">
          <mxGeometry width="50" height="50" relative="1" as="geometry">
            <mxPoint x="150" y="419.9999999999999" as="sourcePoint" />
            <mxPoint x="300" y="370" as="targetPoint" />
          </mxGeometry>
        </mxCell>
        <mxCell id="Qmlk_czyVBTn5NBaqzYN-11" value="&lt;b&gt;&lt;font style=&quot;font-size: 14px;&quot;&gt;superset-postgresql&lt;/font&gt;&lt;/b&gt;" style="rounded=1;arcSize=10;whiteSpace=wrap;html=1;align=center;fillColor=#ffe6cc;strokeColor=#d79b00;" vertex="1" parent="1">
          <mxGeometry x="400" y="480" width="100" height="40" as="geometry" />
        </mxCell>
        <mxCell id="Qmlk_czyVBTn5NBaqzYN-12" value="10.96.58.153:&lt;div&gt;5432/TCP&lt;/div&gt;" style="text;html=1;align=center;verticalAlign=middle;whiteSpace=wrap;rounded=0;" vertex="1" parent="1">
          <mxGeometry x="400" y="520" width="100" height="30" as="geometry" />
        </mxCell>
        <mxCell id="Qmlk_czyVBTn5NBaqzYN-13" value="&lt;b&gt;&lt;font style=&quot;font-size: 14px;&quot;&gt;Deployment&lt;/font&gt;&lt;/b&gt;" style="rounded=1;arcSize=10;whiteSpace=wrap;html=1;align=center;fillColor=#f8cecc;strokeColor=#b85450;" vertex="1" parent="1">
          <mxGeometry x="580" y="160" width="100" height="40" as="geometry" />
        </mxCell>
        <mxCell id="Qmlk_czyVBTn5NBaqzYN-14" value="&lt;span style=&quot;font-size: 14px;&quot;&gt;&lt;b&gt;Replicaset&lt;/b&gt;&lt;/span&gt;" style="rounded=1;arcSize=10;whiteSpace=wrap;html=1;align=center;fillColor=#e1d5e7;strokeColor=#9673a6;" vertex="1" parent="1">
          <mxGeometry x="740" y="160" width="100" height="40" as="geometry" />
        </mxCell>
        <mxCell id="Qmlk_czyVBTn5NBaqzYN-15" value="&lt;span style=&quot;font-size: 14px;&quot;&gt;&lt;b&gt;Persistent&lt;/b&gt;&lt;/span&gt;&lt;div&gt;&lt;span style=&quot;font-size: 14px;&quot;&gt;&lt;b&gt;VolumeClaim&lt;/b&gt;&lt;/span&gt;&lt;/div&gt;" style="rounded=1;arcSize=10;whiteSpace=wrap;html=1;align=center;fillColor=#fff2cc;strokeColor=#d6b656;" vertex="1" parent="1">
          <mxGeometry x="900" y="160" width="100" height="40" as="geometry" />
        </mxCell>
        <mxCell id="Qmlk_czyVBTn5NBaqzYN-16" value="&lt;b&gt;&lt;font style=&quot;font-size: 14px;&quot;&gt;superset&lt;/font&gt;&lt;/b&gt;" style="rounded=1;arcSize=10;whiteSpace=wrap;html=1;align=center;fillColor=#d5e8d4;strokeColor=#82b366;" vertex="1" parent="1">
          <mxGeometry x="120" y="460" width="100" height="40" as="geometry" />
        </mxCell>
        <mxCell id="Qmlk_czyVBTn5NBaqzYN-17" value="" style="endArrow=classic;html=1;rounded=0;entryX=0.5;entryY=0;entryDx=0;entryDy=0;exitX=0.5;exitY=1;exitDx=0;exitDy=0;" edge="1" parent="1" source="Qmlk_czyVBTn5NBaqzYN-9" target="Qmlk_czyVBTn5NBaqzYN-16">
          <mxGeometry width="50" height="50" relative="1" as="geometry">
            <mxPoint x="160" y="410" as="sourcePoint" />
            <mxPoint x="160" y="470" as="targetPoint" />
          </mxGeometry>
        </mxCell>
        <mxCell id="Qmlk_czyVBTn5NBaqzYN-18" value="10.244.2.23" style="text;html=1;align=center;verticalAlign=middle;whiteSpace=wrap;rounded=0;" vertex="1" parent="1">
          <mxGeometry x="120" y="500" width="100" height="20" as="geometry" />
        </mxCell>
        <mxCell id="Qmlk_czyVBTn5NBaqzYN-19" value="&lt;span style=&quot;font-size: 14px;&quot;&gt;&lt;b&gt;airflow&lt;/b&gt;&lt;/span&gt;" style="rounded=1;arcSize=10;whiteSpace=wrap;html=1;align=center;fillColor=#ffe6cc;strokeColor=#d79b00;" vertex="1" parent="1">
          <mxGeometry x="120" y="580" width="100" height="40" as="geometry" />
        </mxCell>
        <mxCell id="Qmlk_czyVBTn5NBaqzYN-20" value="10.111.66.34:&lt;div&gt;8088/TCP&lt;/div&gt;" style="text;html=1;align=center;verticalAlign=middle;whiteSpace=wrap;rounded=0;" vertex="1" parent="1">
          <mxGeometry x="120" y="620" width="100" height="30" as="geometry" />
        </mxCell>
        <mxCell id="Qmlk_czyVBTn5NBaqzYN-21" value="&lt;b&gt;&lt;font style=&quot;font-size: 14px;&quot;&gt;superset&lt;/font&gt;&lt;/b&gt;" style="rounded=1;arcSize=10;whiteSpace=wrap;html=1;align=center;fillColor=#ffe6cc;strokeColor=#d79b00;" vertex="1" parent="1">
          <mxGeometry x="120" y="580" width="100" height="40" as="geometry" />
        </mxCell>
        <mxCell id="Qmlk_czyVBTn5NBaqzYN-22" value="&lt;b&gt;&lt;font style=&quot;font-size: 14px;&quot;&gt;superset-worker&lt;/font&gt;&lt;/b&gt;" style="rounded=1;arcSize=10;whiteSpace=wrap;html=1;align=center;fillColor=#f8cecc;strokeColor=#b85450;" vertex="1" parent="1">
          <mxGeometry x="260" y="260" width="100" height="40" as="geometry" />
        </mxCell>
        <mxCell id="Qmlk_czyVBTn5NBaqzYN-23" value="&lt;b&gt;&lt;font style=&quot;font-size: 14px;&quot;&gt;superset-worker&lt;/font&gt;&lt;/b&gt;" style="rounded=1;arcSize=10;whiteSpace=wrap;html=1;align=center;fillColor=#e1d5e7;strokeColor=#9673a6;" vertex="1" parent="1">
          <mxGeometry x="260" y="360" width="100" height="40" as="geometry" />
        </mxCell>
        <mxCell id="Qmlk_czyVBTn5NBaqzYN-24" value="" style="endArrow=classic;html=1;rounded=0;entryX=0.5;entryY=0;entryDx=0;entryDy=0;exitX=0.5;exitY=1;exitDx=0;exitDy=0;" edge="1" parent="1" source="Qmlk_czyVBTn5NBaqzYN-22" target="Qmlk_czyVBTn5NBaqzYN-23">
          <mxGeometry width="50" height="50" relative="1" as="geometry">
            <mxPoint x="160" y="429.9999999999999" as="sourcePoint" />
            <mxPoint x="310" y="380" as="targetPoint" />
          </mxGeometry>
        </mxCell>
        <mxCell id="Qmlk_czyVBTn5NBaqzYN-25" value="&lt;b&gt;&lt;font style=&quot;font-size: 14px;&quot;&gt;superset-worker&lt;/font&gt;&lt;/b&gt;" style="rounded=1;arcSize=10;whiteSpace=wrap;html=1;align=center;fillColor=#d5e8d4;strokeColor=#82b366;" vertex="1" parent="1">
          <mxGeometry x="260" y="460" width="100" height="40" as="geometry" />
        </mxCell>
        <mxCell id="Qmlk_czyVBTn5NBaqzYN-26" value="" style="endArrow=classic;html=1;rounded=0;entryX=0.5;entryY=0;entryDx=0;entryDy=0;exitX=0.5;exitY=1;exitDx=0;exitDy=0;" edge="1" parent="1" source="Qmlk_czyVBTn5NBaqzYN-23" target="Qmlk_czyVBTn5NBaqzYN-25">
          <mxGeometry width="50" height="50" relative="1" as="geometry">
            <mxPoint x="170" y="420" as="sourcePoint" />
            <mxPoint x="170" y="480" as="targetPoint" />
          </mxGeometry>
        </mxCell>
        <mxCell id="Qmlk_czyVBTn5NBaqzYN-27" value="10.244.1.31" style="text;html=1;align=center;verticalAlign=middle;whiteSpace=wrap;rounded=0;" vertex="1" parent="1">
          <mxGeometry x="260" y="500" width="100" height="20" as="geometry" />
        </mxCell>
        <mxCell id="Qmlk_czyVBTn5NBaqzYN-28" value="" style="endArrow=classic;html=1;rounded=0;entryX=0.5;entryY=0;entryDx=0;entryDy=0;exitX=0.5;exitY=1;exitDx=0;exitDy=0;" edge="1" parent="1" source="Qmlk_czyVBTn5NBaqzYN-18" target="Qmlk_czyVBTn5NBaqzYN-21">
          <mxGeometry width="50" height="50" relative="1" as="geometry">
            <mxPoint x="230" y="505" as="sourcePoint" />
            <mxPoint x="230" y="565" as="targetPoint" />
          </mxGeometry>
        </mxCell>
        <mxCell id="Qmlk_czyVBTn5NBaqzYN-29" value="&lt;b&gt;&lt;font style=&quot;font-size: 14px;&quot;&gt;superset-postgresql-hl&lt;/font&gt;&lt;/b&gt;" style="rounded=1;arcSize=10;whiteSpace=wrap;html=1;align=center;fillColor=#ffe6cc;strokeColor=#d79b00;" vertex="1" parent="1">
          <mxGeometry x="540" y="480" width="100" height="40" as="geometry" />
        </mxCell>
        <mxCell id="Qmlk_czyVBTn5NBaqzYN-30" value="" style="endArrow=classic;html=1;rounded=0;entryX=0.5;entryY=0;entryDx=0;entryDy=0;exitX=0.5;exitY=1;exitDx=0;exitDy=0;" edge="1" parent="1" source="Qmlk_czyVBTn5NBaqzYN-6" target="Qmlk_czyVBTn5NBaqzYN-7">
          <mxGeometry width="50" height="50" relative="1" as="geometry">
            <mxPoint x="470" y="310" as="sourcePoint" />
            <mxPoint x="470" y="370" as="targetPoint" />
          </mxGeometry>
        </mxCell>
        <mxCell id="Qmlk_czyVBTn5NBaqzYN-31" value="5432/TCP" style="text;html=1;align=center;verticalAlign=middle;whiteSpace=wrap;rounded=0;" vertex="1" parent="1">
          <mxGeometry x="540" y="520" width="100" height="20" as="geometry" />
        </mxCell>
        <mxCell id="Qmlk_czyVBTn5NBaqzYN-32" value="" style="edgeStyle=elbowEdgeStyle;elbow=vertical;endArrow=classic;html=1;curved=0;rounded=0;endSize=8;startSize=8;exitX=0.5;exitY=1;exitDx=0;exitDy=0;entryX=0.5;entryY=0;entryDx=0;entryDy=0;" edge="1" parent="1" source="Qmlk_czyVBTn5NBaqzYN-8" target="Qmlk_czyVBTn5NBaqzYN-11">
          <mxGeometry width="50" height="50" relative="1" as="geometry">
            <mxPoint x="540" y="470" as="sourcePoint" />
            <mxPoint x="490" y="520" as="targetPoint" />
          </mxGeometry>
        </mxCell>
        <mxCell id="Qmlk_czyVBTn5NBaqzYN-33" value="" style="edgeStyle=elbowEdgeStyle;elbow=vertical;endArrow=classic;html=1;curved=0;rounded=0;endSize=8;startSize=8;exitX=0.5;exitY=1;exitDx=0;exitDy=0;entryX=0.5;entryY=0;entryDx=0;entryDy=0;" edge="1" parent="1" source="Qmlk_czyVBTn5NBaqzYN-8" target="Qmlk_czyVBTn5NBaqzYN-29">
          <mxGeometry width="50" height="50" relative="1" as="geometry">
            <mxPoint x="570" y="430" as="sourcePoint" />
            <mxPoint x="500" y="470" as="targetPoint" />
          </mxGeometry>
        </mxCell>
        <mxCell id="Qmlk_czyVBTn5NBaqzYN-34" value="&lt;b&gt;&lt;font style=&quot;font-size: 14px;&quot;&gt;superset-redis-master&lt;/font&gt;&lt;/b&gt;" style="rounded=1;arcSize=10;whiteSpace=wrap;html=1;align=center;fillColor=#dae8fc;strokeColor=#6c8ebf;" vertex="1" parent="1">
          <mxGeometry x="750" y="260" width="100" height="40" as="geometry" />
        </mxCell>
        <mxCell id="Qmlk_czyVBTn5NBaqzYN-35" value="&lt;b&gt;&lt;font style=&quot;font-size: 14px;&quot;&gt;superset-redis-master-0&lt;/font&gt;&lt;/b&gt;" style="rounded=1;arcSize=10;whiteSpace=wrap;html=1;align=center;fillColor=#d5e8d4;strokeColor=#82b366;" vertex="1" parent="1">
          <mxGeometry x="750" y="360" width="100" height="40" as="geometry" />
        </mxCell>
        <mxCell id="Qmlk_czyVBTn5NBaqzYN-36" value="10.244.2.24" style="text;html=1;align=center;verticalAlign=middle;whiteSpace=wrap;rounded=0;" vertex="1" parent="1">
          <mxGeometry x="750" y="400" width="100" height="20" as="geometry" />
        </mxCell>
        <mxCell id="Qmlk_czyVBTn5NBaqzYN-37" value="&lt;b&gt;&lt;font style=&quot;font-size: 14px;&quot;&gt;superset-redis-master&lt;/font&gt;&lt;/b&gt;" style="rounded=1;arcSize=10;whiteSpace=wrap;html=1;align=center;fillColor=#ffe6cc;strokeColor=#d79b00;" vertex="1" parent="1">
          <mxGeometry x="680" y="480" width="100" height="40" as="geometry" />
        </mxCell>
        <mxCell id="Qmlk_czyVBTn5NBaqzYN-38" value="10.111.124.73:&lt;div&gt;6379/TCP&lt;/div&gt;" style="text;html=1;align=center;verticalAlign=middle;whiteSpace=wrap;rounded=0;" vertex="1" parent="1">
          <mxGeometry x="680" y="520" width="100" height="30" as="geometry" />
        </mxCell>
        <mxCell id="Qmlk_czyVBTn5NBaqzYN-39" value="&lt;b&gt;&lt;font style=&quot;font-size: 14px;&quot;&gt;superset-redis-hl&lt;/font&gt;&lt;/b&gt;" style="rounded=1;arcSize=10;whiteSpace=wrap;html=1;align=center;fillColor=#ffe6cc;strokeColor=#d79b00;" vertex="1" parent="1">
          <mxGeometry x="820" y="480" width="100" height="40" as="geometry" />
        </mxCell>
        <mxCell id="Qmlk_czyVBTn5NBaqzYN-40" value="" style="endArrow=classic;html=1;rounded=0;entryX=0.5;entryY=0;entryDx=0;entryDy=0;exitX=0.5;exitY=1;exitDx=0;exitDy=0;" edge="1" parent="1" source="Qmlk_czyVBTn5NBaqzYN-34" target="Qmlk_czyVBTn5NBaqzYN-35">
          <mxGeometry width="50" height="50" relative="1" as="geometry">
            <mxPoint x="770" y="310" as="sourcePoint" />
            <mxPoint x="770" y="370" as="targetPoint" />
          </mxGeometry>
        </mxCell>
        <mxCell id="Qmlk_czyVBTn5NBaqzYN-41" value="6379/TCP" style="text;html=1;align=center;verticalAlign=middle;whiteSpace=wrap;rounded=0;" vertex="1" parent="1">
          <mxGeometry x="830" y="520" width="100" height="20" as="geometry" />
        </mxCell>
        <mxCell id="Qmlk_czyVBTn5NBaqzYN-42" value="" style="edgeStyle=elbowEdgeStyle;elbow=vertical;endArrow=classic;html=1;curved=0;rounded=0;endSize=8;startSize=8;exitX=0.5;exitY=1;exitDx=0;exitDy=0;entryX=0.5;entryY=0;entryDx=0;entryDy=0;" edge="1" parent="1" source="Qmlk_czyVBTn5NBaqzYN-36" target="Qmlk_czyVBTn5NBaqzYN-37">
          <mxGeometry width="50" height="50" relative="1" as="geometry">
            <mxPoint x="840" y="470" as="sourcePoint" />
            <mxPoint x="790" y="520" as="targetPoint" />
          </mxGeometry>
        </mxCell>
        <mxCell id="Qmlk_czyVBTn5NBaqzYN-43" value="" style="edgeStyle=elbowEdgeStyle;elbow=vertical;endArrow=classic;html=1;curved=0;rounded=0;endSize=8;startSize=8;exitX=0.5;exitY=1;exitDx=0;exitDy=0;entryX=0.5;entryY=0;entryDx=0;entryDy=0;" edge="1" parent="1" source="Qmlk_czyVBTn5NBaqzYN-36" target="Qmlk_czyVBTn5NBaqzYN-39">
          <mxGeometry width="50" height="50" relative="1" as="geometry">
            <mxPoint x="870" y="430" as="sourcePoint" />
            <mxPoint x="800" y="470" as="targetPoint" />
          </mxGeometry>
        </mxCell>
        <mxCell id="Qmlk_czyVBTn5NBaqzYN-44" value="" style="endArrow=classic;html=1;rounded=0;exitX=1;exitY=0.5;exitDx=0;exitDy=0;entryX=0;entryY=0.5;entryDx=0;entryDy=0;" edge="1" parent="1" source="Qmlk_czyVBTn5NBaqzYN-7" target="Qmlk_czyVBTn5NBaqzYN-45">
          <mxGeometry width="50" height="50" relative="1" as="geometry">
            <mxPoint x="490" y="450" as="sourcePoint" />
            <mxPoint x="540" y="400" as="targetPoint" />
          </mxGeometry>
        </mxCell>
        <mxCell id="Qmlk_czyVBTn5NBaqzYN-45" value="&lt;span style=&quot;font-size: 14px;&quot;&gt;&lt;b&gt;data-superset-postgresql-0&lt;/b&gt;&lt;/span&gt;" style="rounded=1;arcSize=10;whiteSpace=wrap;html=1;align=center;fillColor=#fff2cc;strokeColor=#d6b656;" vertex="1" parent="1">
          <mxGeometry x="610" y="360" width="100" height="40" as="geometry" />
        </mxCell>
        <mxCell id="Qmlk_czyVBTn5NBaqzYN-48" value="8 GiB" style="text;html=1;align=center;verticalAlign=middle;whiteSpace=wrap;rounded=0;" vertex="1" parent="1">
          <mxGeometry x="610" y="400" width="100" height="20" as="geometry" />
        </mxCell>
        <mxCell id="Qmlk_czyVBTn5NBaqzYN-54" value="&lt;span style=&quot;font-size: 14px;&quot;&gt;&lt;b&gt;Job&lt;/b&gt;&lt;/span&gt;" style="rounded=1;arcSize=10;whiteSpace=wrap;html=1;align=center;fillColor=#1ba1e2;strokeColor=#006EAF;fontColor=#ffffff;" vertex="1" parent="1">
          <mxGeometry x="1060" y="160" width="100" height="40" as="geometry" />
        </mxCell>
        <mxCell id="Qmlk_czyVBTn5NBaqzYN-55" value="&lt;span style=&quot;font-size: 14px;&quot;&gt;&lt;b&gt;superset-init-db&lt;/b&gt;&lt;/span&gt;" style="rounded=1;arcSize=10;whiteSpace=wrap;html=1;align=center;fillColor=#1ba1e2;strokeColor=#006EAF;fontColor=#ffffff;" vertex="1" parent="1">
          <mxGeometry x="960" y="260" width="100" height="40" as="geometry" />
        </mxCell>
        <mxCell id="Qmlk_czyVBTn5NBaqzYN-56" value="&lt;b&gt;&lt;font style=&quot;font-size: 14px;&quot;&gt;superset-init-db&lt;/font&gt;&lt;/b&gt;" style="rounded=1;arcSize=10;whiteSpace=wrap;html=1;align=center;fillColor=#d5e8d4;strokeColor=#82b366;" vertex="1" parent="1">
          <mxGeometry x="960" y="360" width="100" height="40" as="geometry" />
        </mxCell>
        <mxCell id="Qmlk_czyVBTn5NBaqzYN-57" value="" style="endArrow=classic;html=1;rounded=0;entryX=0.5;entryY=0;entryDx=0;entryDy=0;exitX=0.5;exitY=1;exitDx=0;exitDy=0;" edge="1" parent="1" source="Qmlk_czyVBTn5NBaqzYN-55" target="Qmlk_czyVBTn5NBaqzYN-56">
          <mxGeometry width="50" height="50" relative="1" as="geometry">
            <mxPoint x="980" y="300" as="sourcePoint" />
            <mxPoint x="980" y="360" as="targetPoint" />
          </mxGeometry>
        </mxCell>
        <mxCell id="Qmlk_czyVBTn5NBaqzYN-58" value="10.244.2.25" style="text;html=1;align=center;verticalAlign=middle;whiteSpace=wrap;rounded=0;" vertex="1" parent="1">
          <mxGeometry x="960" y="400" width="100" height="20" as="geometry" />
        </mxCell>
      </root>
    </mxGraphModel>
  </diagram>
</mxfile>
